Coordinates
version=1
nRows=26
nColumns=24
inDegrees=yes

Units are S.I. units (second, meters, Newtons, ...)
Angles are in degrees.

endheader
time	pelvis_tilt	pelvis_list	pelvis_rotation	pelvis_tx	pelvis_ty	pelvis_tz	hip_flexion_r	hip_adduction_r	hip_rotation_r	knee_angle_r	ankle_angle_r	subtalar_angle_r	mtp_angle_r	hip_flexion_l	hip_adduction_l	hip_rotation_l	knee_angle_l	ankle_angle_l	subtalar_angle_l	mtp_angle_l	lumbar_extension	lumbar_bending	lumbar_rotation
      1.37900000	      3.22032864	     -5.65360319	     -7.55412121	      0.84428846	      0.97631393	      0.37298233	    -23.57799350	      5.77216052	     -2.03844119	     -6.66972996	     12.61236540	     -1.53481761	     -1.76585971	     26.47872879	     -9.15345191	     -9.78345724	      4.08622580	      3.50099970	    -12.85285337	    -13.65629078	    -14.68163397	      4.24795359	      9.28823479
      1.38316667	      3.16854451	     -5.62796216	     -7.99198165	      0.85004278	      0.97522854	      0.37393125	    -23.77344258	      5.53075572	     -1.71291480	     -6.88617921	     12.64533670	     -1.38778314	     -1.48218455	     26.59452501	     -9.39994554	     -9.86399342	      3.40922889	      3.95958802	    -12.66702860	    -13.72176699	    -14.63521814	      3.98085541	      9.78633808
      1.38733333	      3.17661248	     -5.62985269	     -8.34428633	      0.85578243	      0.97418914	      0.37461301	    -24.02979489	      5.32396759	     -1.49335847	     -7.10590479	     12.67462773	     -1.20369799	     -1.32090941	     26.64502211	     -9.61212807	     -9.76487250	      2.73874612	      4.33475604	    -12.68875214	    -13.75393067	    -14.66947010	      3.78618578	      9.97572402
      1.39150000	      3.15011988	     -5.60291803	     -8.71746843	      0.86166434	      0.97313255	      0.37533371	    -24.25095858	      5.08206886	     -1.27889290	     -7.31969662	     12.64686186	     -1.02110091	     -1.12225364	     26.71894674	     -9.80951818	     -9.73171120	      2.02206017	      4.78772908	    -12.59292958	    -13.79251327	    -14.63629915	      3.54622887	     10.27501571
      1.39566667	      3.13506859	     -5.57886974	     -9.08829277	      0.86758621	      0.97210960	      0.37601221	    -24.48142711	      4.83536330	     -1.06487810	     -7.53640720	     12.59205835	     -0.85260252	     -0.90877355	     26.76091120	     -9.99981048	     -9.67580243	      1.30262734	      5.22935687	    -12.53773095	    -13.83305070	    -14.61640479	      3.31312286	     10.53352209
      1.39983333	      3.11924675	     -5.54178233	     -9.47415028	      0.87357637	      0.97111985	      0.37667352	    -24.69609104	      4.56165668	     -0.87181537	     -7.77645719	     12.49771286	     -0.67696102	     -0.62619550	     26.78805031	    -10.18048579	     -9.69574713	      0.56548971	      5.66318861	    -12.37194164	    -13.88151594	    -14.59097060	      3.06548722	     10.82106066
      1.40400000	      3.11071429	     -5.47917528	     -9.89617312	      0.87970507	      0.97019655	      0.37744626	    -24.93430324	      4.24978873	     -0.61295849	     -7.97840762	     12.34039822	     -0.58565495	     -0.08640429	     26.76014465	    -10.35012161	     -9.79005215	     -0.13342875	      6.07621965	    -12.16953340	    -13.96606710	    -14.54105523	      2.76933298	     11.12718292
      1.40816667	      3.10397149	     -5.46199969	    -10.19304897	      0.88579010	      0.96920874	      0.37779762	    -25.16104269	      4.00888627	     -0.51127026	     -8.21095104	     12.18625219	     -0.41421152	     -0.03159887	     26.74963755	    -10.47430797	     -9.60573612	     -0.82044289	      6.36306504	    -12.30367830	    -13.96940310	    -14.52147957	      2.59422937	     11.16373375
      1.41233333	      3.09582705	     -5.38345284	    -10.63675008	      0.89200800	      0.96834313	      0.37850540	    -25.35988006	      3.65080881	     -0.30362825	     -8.48043460	     12.06666542	     -0.16391172	      0.52539680	     26.69030689	    -10.62692168	     -9.82442537	     -1.52772656	      6.75070938	    -11.94616737	    -14.02486822	    -14.46839900	      2.27859453	     11.60664582
      1.41650000	      3.11460008	     -5.31976404	    -11.02156843	      0.89825849	      0.96750864	      0.37902502	    -25.58770619	      3.31407563	     -0.15983092	     -8.74299998	     11.88549349	      0.06436180	      1.27561018	     26.59582106	    -10.74524719	     -9.95155120	     -2.20340530	      7.04905389	    -11.73321818	    -14.06782701	    -14.44913848	      2.00618814	     11.90176961
      1.42066667	      3.09888700	     -5.32154914	    -11.28882509	      0.90447167	      0.96658693	      0.37918732	    -25.77843246	      3.08397764	     -0.09989862	     -9.01703148	     11.62711940	      0.25652029	      1.35149787	     26.55822739	    -10.85018633	     -9.80931321	     -2.85591698	      7.20116711	    -11.81955614	    -14.06824795	    -14.41189862	      1.87085469	     11.93833456
      1.42483333	      3.07703627	     -5.22944831	    -11.63483251	      0.91084958	      0.96572934	      0.37951404	    -25.92490798	      2.72044841	     -0.07068055	     -9.34231411	     11.45356939	      0.64921270	      1.65906945	     26.49508782	    -10.90829384	     -9.97714103	     -3.49814373	      7.33600128	    -11.59960798	    -14.06390806	    -14.34014972	      1.60512747	     12.24762430
      1.42900000	      3.09972262	     -5.12797727	    -12.03000364	      0.91725907	      0.96504184	      0.37996405	    -26.10884470	      2.32386543	      0.05037852	     -9.66405563	     11.17503113	      0.87379585	      2.15455318	     26.33054660	    -10.96921026	    -10.23626560	     -4.06826372	      7.38702803	    -11.40526371	    -14.04411396	    -14.30303744	      1.29346875	     12.53578762
      1.43316667	      3.12725759	     -5.08656874	    -12.42113819	      0.92360746	      0.96442065	      0.38038518	    -26.29529839	      1.99105520	      0.25478283	     -9.97995323	     10.76711072	      0.85080859	      9.89073056	     26.15558215	    -11.08101184	    -10.48287500	     -4.61958381	      7.34334513	    -11.30045659	    -13.32050734	    -14.29798956	      1.06209010	     12.59977536
      1.43733333	      3.11069030	     -4.96599753	    -12.61658396	      0.93017747	      0.96362707	      0.38030518	    -26.42453518	      1.63911654	      0.10278656	    -10.32097154	     10.42000211	      1.20124825	      9.94180841	     26.08418892	    -11.00461282	    -10.53160581	     -5.15775961	      7.18814400	    -11.29725275	    -13.30018845	    -14.19536283	      0.80533588	     12.84121420
      1.44150000	      3.11182013	     -4.83204078	    -12.91736487	      0.93671609	      0.96301145	      0.38044709	    -26.53135665	      1.23430200	      0.10050159	    -10.71646870	     10.06242622	      1.46250100	     10.03170328	     25.93276378	    -10.96036936	    -10.76098202	     -5.61218963	      6.88552541	    -11.32157528	    -13.26120476	    -14.11203806	      0.50379860	     12.95697256
      1.44566667	      3.15036068	     -4.67824848	    -13.19860127	      0.94329692	      0.96250896	      0.38053613	    -26.66000558	      0.80504430	      0.06819719	    -11.12495274	      9.64763862	      1.71677437	     10.16717082	     25.73986117	    -10.87590492	    -11.02135413	     -6.04445830	      6.49416701	    -11.36001031	    -13.20026761	    -14.06331536	      0.17617353	     13.10877960
      1.44983333	      3.16735466	     -4.53144005	    -13.44502931	      0.94986329	      0.96201938	      0.38055646	    -26.74477396	      0.40391831	      0.03170516	    -11.56613487	      9.18561184	      1.92875435	     10.33121001	     25.58935701	    -10.78682474	    -11.28761979	     -6.46259611	      5.98808001	    -11.41248466	    -13.11705166	    -13.99916667	     -0.12705079	     13.21289397
      1.45400000	      3.27959701	     -4.35777384	    -13.67645122	      0.95642114	      0.96174654	      0.38049597	    -26.89698871	     -0.05164555	     -0.06095081	    -12.04292103	      8.72504192	      2.23077941	     10.68960925	     25.32123901	    -10.63344127	    -11.56725110	     -6.81694658	      5.29184670	    -11.57108960	    -12.92031891	    -14.04436209	     -0.47968139	     13.37626844
      1.45816667	      3.23932695	     -4.17718941	    -13.84669196	      0.96308380	      0.96127690	      0.38036388	    -26.87929861	     -0.43749112	     -0.14541871	    -12.54186780	      8.14267912	      2.32818086	     10.87929009	     25.27350292	    -10.48657114	    -11.81401446	     -7.24327796	      4.62439569	    -11.69048693	    -12.81637536	    -13.89307808	     -0.78873667	     13.34392503
      1.46233333	      3.35576602	     -3.96167450	    -13.98520202	      0.96968330	      0.96110077	      0.38005215	    -26.97693834	     -0.90753197	     -0.35665542	    -13.10435303	      7.63155328	      2.67153112	     11.42594010	     25.04174006	    -10.23662276	    -12.03394916	     -7.56932907	      3.69434848	    -12.00726191	    -12.49402445	    -13.93093186	     -1.16158392	     13.43288016
      1.46650000	      3.30016149	     -3.76256218	    -14.09410835	      0.97636995	      0.96073486	      0.37981364	    -26.89087125	     -1.27697679	     -0.46312317	    -13.67804342	      6.93476307	      2.68022010	     11.65006498	     25.05881181	    -10.05663868	    -12.28224504	     -8.02584418	      2.88955239	    -12.13458284	    -12.36300660	    -13.76054434	     -1.47401293	     13.33498369
      1.47066667	      3.40091988	     -3.50300071	    -14.12310954	      0.98300443	      0.96062532	      0.37920675	    -26.90926279	     -1.75036301	     -0.79417847	    -14.33947756	      6.35534125	      3.03375065	     12.39767673	     24.90057865	     -9.70388648	    -12.35664947	     -8.36198246	      1.78678769	    -12.64264820	    -11.90473149	    -13.78452155	     -1.85400765	     13.30921105
      1.47483333	      3.31835353	     -3.31182140	    -14.07039757	      0.98971641	      0.96026857	      0.37860027	    -26.75904703	     -2.04797149	     -1.05228580	    -14.97316586	      5.53116469	      2.98552191	     20.91638141	     25.05110328	     -9.47257579	    -12.46178759	     -8.91240114	      0.80847872	    -12.91445033	     -6.41042968	    -13.59928862	     -2.10336164	     13.10223910
      1.47900000	      3.34626629	     -3.05672590	    -14.10116602	      0.99639704	      0.96021470	      0.37819298	    -26.66171349	     -2.46345870	     -1.22533157	    -15.69382672	      4.79023893	      3.01524223	     20.93974738	     25.03901313	     -9.19336764	    -12.69187834	     -9.41178332	     -0.17329414	    -13.16737739	     -6.36307560	    -13.51917259	     -2.48512207	     13.01458963
      1.48316667	      3.36983128	     -2.79383934	    -14.04980119	      1.00309217	      0.96017791	      0.37755268	    -26.53195648	     -2.86217764	     -1.49337800	    -16.46643066	      3.99268392	      3.07195581	     21.01981309	     25.07124514	     -8.86070692	    -12.77526671	     -9.94240154	     -1.16209707	    -13.53003614	     -6.27965116	    -13.44531701	     -2.84531580	     12.88085878
